<?xml version="1.0" encoding="UTF-8"?>
<!DOCTYPE svg PUBLIC "-//W3C//DTD SVG 1.1//EN" "http://www.w3.org/Graphics/SVG/1.1/DTD/svg11.dtd">
<!-- Creator: CorelDRAW X8 -->
<svg xmlns="http://www.w3.org/2000/svg" xml:space="preserve" width="1157px" height="257px" version="1.1" style="shape-rendering:geometricPrecision; text-rendering:geometricPrecision; image-rendering:optimizeQuality; fill-rule:evenodd; clip-rule:evenodd"
viewBox="0 0 11391 2528"
 xmlns:xlink="http://www.w3.org/1999/xlink">
 <defs>
  <style type="text/css">
   <![CDATA[
    .fil0 {fill:#E31E24}
    .fil1 {fill:#3663AB}
    .fil2 {fill:#3663AB;fill-rule:nonzero}
    .fil3 {fill:#009846;fill-rule:nonzero}
   ]]>
  </style>
 </defs>
 <g id="Layer_x0020_1">
  <metadata id="CorelCorpID_0Corel-Layer"/>
  <path class="fil0" d="M710 754l394 14 -370 615c-146,242 -393,525 -462,798 -35,140 28,336 241,231 313,-208 575,-548 851,-963l77 -7c-213,312 -442,627 -753,924 -66,63 -126,113 -214,142 -239,78 -462,-78 -474,-345 -13,-300 473,-1034 710,-1409z"/>
  <path class="fil0" d="M1055 465c100,0 228,-103 286,-231 57,-129 23,-232 -76,-232 -100,0 -228,103 -286,232 -58,128 -24,231 76,231z"/>
  <path class="fil1" d="M3796 2272c0,-34 -8,-67 -25,-99 -17,-31 -40,-59 -70,-82 -30,-24 -65,-42 -104,-55 -40,-14 -82,-20 -126,-20l-777 0c-123,0 -230,-35 -321,-104 -87,-72 -131,-157 -131,-254 0,-99 44,-183 131,-251 89,-71 196,-106 321,-106l777 0c44,0 86,-7 126,-20 18,-7 36,-14 52,-22 7,-3 13,-7 20,-10 31,-17 57,-41 81,-71 23,-31 41,-66 54,-107 13,-40 19,-83 19,-127l0 -241 0 -132 0 -240c0,-45 -6,-87 -19,-128 -13,-40 -31,-76 -54,-106 -24,-30 -50,-54 -80,-71 -30,-17 -63,-26 -98,-26 -34,0 -66,9 -97,26 -31,17 -58,41 -81,71 -23,30 -41,66 -54,106 -13,41 -20,83 -20,128l0 240 0 0 0 217 -626 0c-301,0 -560,85 -777,256 -214,170 -321,374 -321,614 0,242 107,447 321,616 215,170 474,254 777,254l777 0c44,0 86,-6 126,-20 39,-13 74,-31 104,-55 30,-23 53,-50 70,-81 17,-31 25,-64 25,-100z"/>
  <path class="fil2" d="M8534 2272c0,-34 -9,-67 -26,-99 -17,-31 -40,-58 -70,-82 -29,-23 -64,-42 -104,-55 -39,-13 -81,-20 -125,-20l-776 0c-123,0 -230,-35 -322,-103 -87,-73 -131,-157 -131,-254 0,-99 44,-183 131,-252 90,-70 197,-106 322,-106l776 0c44,0 86,-6 125,-20 40,-13 75,-31 104,-55 30,-23 53,-50 70,-81 17,-30 26,-64 26,-100 0,-34 -9,-67 -26,-98 -17,-32 -40,-59 -70,-83 -29,-23 -64,-42 -104,-55 -39,-13 -81,-20 -125,-20l-776 0c-302,0 -561,85 -777,256 -214,169 -321,374 -321,614 0,241 107,446 321,616 214,169 473,253 777,253l776 0c44,0 86,-6 125,-20 40,-13 75,-31 104,-55 30,-23 53,-50 70,-81 17,-30 26,-64 26,-100z"/>
  <path class="fil2" d="M6178 1659c0,-240 -108,-445 -324,-614 -215,-171 -474,-256 -777,-256 -302,0 -560,85 -777,256 -214,169 -321,374 -321,614 0,241 107,446 321,616 215,169 473,253 777,253 303,0 562,-84 777,-253 216,-171 324,-377 324,-616zm-646 0c0,102 -44,186 -134,254 -91,68 -198,103 -321,103 -123,0 -230,-35 -321,-103 -88,-73 -131,-157 -131,-254 0,-99 43,-183 131,-252 89,-70 196,-106 321,-106 125,0 232,36 321,106 90,71 134,155 134,252z"/>
  <path class="fil3" d="M9738 1605c0,40 -4,83 -11,129 -8,45 -19,91 -34,136 -15,45 -35,89 -59,131 -24,42 -52,79 -86,110 -33,32 -71,58 -114,77 -44,19 -92,28 -146,28 -24,0 -47,-2 -68,-7 -21,-5 -41,-12 -59,-21 -18,-9 -34,-19 -49,-31 -14,-12 -27,-25 -38,-38l-73 370c-2,6 -5,11 -9,16 -5,5 -12,9 -22,12 -9,4 -21,6 -37,8 -15,2 -34,3 -57,3 -22,0 -41,-1 -55,-3 -14,-2 -25,-4 -33,-8 -8,-3 -14,-7 -16,-12 -3,-5 -3,-10 -2,-16l229 -1145c3,-13 12,-22 29,-27 16,-6 44,-9 82,-9 18,0 34,1 46,3 12,1 21,3 28,6 7,3 12,6 14,11 3,5 4,10 2,16l-25 134c9,-20 23,-41 43,-63 20,-22 44,-42 72,-60 27,-18 58,-32 91,-44 34,-12 68,-18 103,-18 48,0 87,9 119,25 32,16 58,38 78,66 20,28 35,61 44,99 8,38 13,79 13,122zm-237 20c0,-20 -2,-39 -5,-56 -3,-18 -9,-32 -17,-44 -7,-12 -17,-21 -29,-27 -12,-6 -27,-9 -44,-9 -28,0 -56,8 -83,24 -28,16 -54,38 -79,66 -24,28 -46,60 -65,97 -19,37 -32,77 -40,119l-25 125c21,34 45,59 71,76 25,16 55,25 90,25 25,0 48,-7 69,-19 21,-12 40,-28 57,-49 17,-20 32,-44 44,-71 13,-27 23,-55 32,-84 8,-29 14,-59 18,-89 4,-29 6,-57 6,-84zm1005 -292c0,4 -1,12 -2,23 -1,11 -3,24 -5,38 -3,15 -6,30 -9,45 -4,16 -8,30 -13,44 -4,13 -10,24 -15,33 -6,9 -13,13 -19,13 -6,0 -11,-1 -17,-4 -5,-2 -11,-4 -18,-6 -7,-2 -14,-4 -22,-6 -8,-3 -17,-3 -28,-3 -20,0 -43,7 -66,23 -24,16 -46,37 -67,63 -21,26 -41,57 -57,91 -17,35 -29,71 -36,109l-74 368c-1,6 -4,12 -9,16 -4,5 -11,9 -21,12 -10,3 -22,5 -37,7 -16,1 -35,2 -57,2 -22,0 -41,-1 -55,-2 -14,-2 -25,-4 -33,-7 -9,-3 -14,-7 -16,-12 -3,-4 -4,-10 -2,-16l163 -820c1,-6 4,-11 8,-16 5,-5 11,-8 19,-11 8,-3 19,-5 32,-6 13,-2 29,-3 47,-3 19,0 34,1 46,3 12,1 21,3 28,6 7,3 11,6 13,11 3,5 3,10 2,16l-25 131c15,-27 32,-51 51,-73 19,-22 39,-41 61,-57 22,-16 44,-29 67,-38 23,-9 46,-14 69,-14 9,0 18,1 28,2 9,2 18,3 26,5 9,2 16,4 22,7 7,2 12,5 15,8 4,4 6,10 6,18zm885 288c0,44 -4,89 -12,136 -8,46 -21,91 -39,136 -18,44 -41,86 -68,125 -28,38 -62,73 -101,102 -38,30 -83,53 -133,70 -50,18 -107,26 -170,26 -62,0 -115,-7 -160,-22 -45,-14 -83,-35 -113,-63 -30,-28 -52,-62 -67,-103 -15,-40 -22,-87 -22,-139 0,-44 4,-89 13,-136 8,-47 21,-92 38,-136 18,-44 41,-86 69,-125 28,-40 61,-74 100,-103 39,-30 84,-53 134,-70 50,-17 107,-26 170,-26 61,0 115,8 160,22 45,14 82,35 112,63 30,28 53,62 67,103 15,41 22,87 22,140zm-238 16c0,-26 -3,-49 -8,-68 -5,-20 -14,-37 -26,-51 -12,-14 -27,-24 -46,-31 -18,-8 -41,-11 -68,-11 -31,0 -59,6 -83,18 -24,11 -46,27 -66,48 -19,20 -35,43 -50,70 -14,26 -26,54 -35,84 -9,29 -16,59 -20,89 -4,30 -6,59 -6,87 0,25 2,48 8,68 5,21 13,37 25,51 12,14 28,24 46,32 19,7 42,11 69,11 31,0 58,-6 83,-18 24,-12 46,-28 65,-49 19,-20 36,-44 50,-70 14,-27 26,-55 35,-85 9,-29 16,-59 20,-89 4,-30 7,-58 7,-86z"/>
 </g>
</svg>
